<svg xmlns="http://www.w3.org/2000/svg" viewBox="0 0 238.11 226.77" preserveAspectRatio="xMidYMid meet">
    <defs>
        <style>.cls-1{fill:#bbbbbb;}</style>
    </defs>
    <title>logo-final-black</title>
    <g id="Layer_2" data-name="Layer 2">
        <g id="Layer_1-2" data-name="Layer 1">
            <path class="cls-1" d="M28.35,113.39A28.37,28.37,0,0,1,47.16,86.68,5.72,5.72,0,0,0,51,81.31V73.7A5.67,5.67,0,0,0,45.35,68H34a5.67,5.67,0,0,1-5.67-5.67V5.67A5.67,5.67,0,0,0,22.68,0h-17A5.67,5.67,0,0,0,0,5.67v147.4a5.67,5.67,0,0,0,5.67,5.67H45.35A5.67,5.67,0,0,0,51,153.07v-7.61a5.72,5.72,0,0,0-3.86-5.37A28.36,28.36,0,0,1,28.35,113.39Z"/>
            <path class="cls-1" d="M62.36,81.31a5.72,5.72,0,0,0,3.86,5.37,28.36,28.36,0,0,1,0,53.41,5.72,5.72,0,0,0-3.86,5.37v7.61A5.67,5.67,0,0,0,68,158.74h39.69a5.67,5.67,0,0,0,5.67-5.67V73.7A5.67,5.67,0,0,0,107.72,68H68a5.67,5.67,0,0,0-5.67,5.67Z"/>
            <path class="cls-1" d="M153.07,113.39a28.36,28.36,0,0,0,18.82,26.7,5.72,5.72,0,0,1,3.86,5.37v7.61a5.67,5.67,0,0,1-5.67,5.67H158.74a5.67,5.67,0,0,0-5.67,5.67V221.1a5.67,5.67,0,0,1-5.67,5.67h-17a5.67,5.67,0,0,1-5.67-5.67V73.7A5.67,5.67,0,0,1,130.39,68h39.69a5.67,5.67,0,0,1,5.67,5.67v7.61a5.72,5.72,0,0,1-3.86,5.37A28.36,28.36,0,0,0,153.07,113.39Z"/>
            <path class="cls-1" d="M187.09,145.46a5.72,5.72,0,0,1,3.86-5.37,28.36,28.36,0,0,0,0-53.41,5.72,5.72,0,0,1-3.86-5.37V73.7A5.67,5.67,0,0,1,192.76,68h39.68a5.67,5.67,0,0,1,5.67,5.67v79.37a5.67,5.67,0,0,1-5.67,5.67H192.76a5.67,5.67,0,0,1-5.67-5.67Z"/>
        </g>
    </g>
</svg>
